<svg width="108" height="87" viewBox="0 0 108 87" fill="none" xmlns="http://www.w3.org/2000/svg">
<g id="&#208;&#177;&#209;&#128;&#208;&#181;&#208;&#185;&#208;&#189; &#208;&#177;&#208;&#181;&#208;&#187;&#209;&#139;&#208;&#185;">
<path id="Vector" d="M90.8956 70.5545C90.9049 71.4318 90.6785 72.5788 90.4429 73.5244C88.7968 80.174 81.4869 87.6358 71.1979 86.9568C61.8729 86.343 54.2778 81.8666 54.2778 75.589C54.2778 69.3114 61.8543 64.2211 71.1979 64.2211C80.5414 64.2211 90.8367 64.2769 90.8956 70.5545Z" fill="#717171" fill-opacity="0.05"/>
<path id="Vector_2" d="M71.1979 65.2753C66.179 65.2753 54.7243 66.6641 52.0955 66.6641C47.4516 66.6641 43.6851 69.5781 43.6851 73.1742C43.6851 74.904 44.5717 76.4664 45.9915 77.632C45.9915 77.632 49.1101 80.76 54.7274 79.2596C57.1858 78.6024 61.1848 73.7229 68.225 72.9479C71.7312 72.5604 78.3001 75.2729 89.8447 75.338C90.3407 74.2716 90.443 73.5307 90.443 73.5307C90.443 67.2469 80.5415 65.2753 71.1979 65.2753Z" fill="#AAAAAA" fill-opacity="0.05"/>
<path id="Vector_3" d="M90.4432 73.5244C90.4432 73.5244 97.2137 72.1511 101.424 66.6144C106.331 60.157 105.686 53.247 105.686 53.247C110.659 43.9469 104.136 35.2264 104.136 35.2264C103.488 25.4086 97.4183 21.3413 97.4183 21.3413C93.4781 11.9761 84.7608 9.45887 84.7608 9.45887C77.9159 1.45146 65.773 1.70877 65.773 1.70877C65.773 1.70877 54.3959 -2.46079 38.7779 2.22647C36.1955 3.00148 27.5402 4.80881 21.2099 8.68386C1.25803 20.898 -0.251693 39.9447 0.0273105 43.0416C1.57423 60.3492 13.7171 63.4492 21.4672 65.2566C23.2745 70.1639 29.9272 79.2068 41.8748 75.8494C56.6 73.2671 62.8001 68.8743 66.4178 68.8743C70.0356 68.8743 80.1107 72.7494 90.4432 73.5244Z" fill="white" fill-opacity="0.05"/>
<g id="Group">
<path id="Vector_4" d="M53.2021 45.6953C60.419 41.8048 64.3312 42.1675 67.7847 42.4806C68.8821 42.5798 69.9206 42.6573 70.9715 42.6511C77.122 42.5116 82.1038 39.92 84.3079 37.412C84.8721 36.7672 84.807 35.7907 84.1653 35.2234C83.5267 34.6592 82.5502 34.7181 81.9767 35.3629C80.2778 37.2973 76.0897 39.4332 70.9002 39.5511C69.9702 39.579 69.0371 39.4859 68.0699 39.396C64.3653 39.0519 59.7649 38.6303 51.7295 42.9673C49.668 44.0802 46.8408 44.4925 43.7779 44.8025C36.9671 34.9723 41.0654 26.41 42.2372 24.3701C42.3519 24.3763 42.4635 24.4135 42.5813 24.4135C43.8213 24.4135 45.0676 24.1097 46.196 23.4711C46.94 23.0495 47.2035 22.104 46.7819 21.36C46.3603 20.616 45.4148 20.3525 44.6707 20.7741C42.6867 21.8963 40.0765 21.2484 38.8427 19.3264C38.3808 18.6041 37.4228 18.3932 36.7036 18.8583C35.9844 19.3202 35.7736 20.2781 36.2355 20.9973C36.9702 22.1474 38.0057 23.0123 39.1744 23.592C37.5592 26.8719 34.4933 35.4962 40.3276 45.1404C36.2231 45.5434 32.1125 46.1231 28.8946 48.1971C26.8176 49.5363 24.6941 51.4955 23.0727 53.7493C21.1228 53.4144 13.9834 51.6567 12.7372 43.733C13.5122 43.1316 14.1384 42.338 14.5259 41.3584C14.8421 40.5617 14.4515 39.6627 13.6548 39.3464C12.8581 39.0302 11.9591 39.4208 11.6429 40.2176C11.367 40.9151 10.8679 41.4235 10.2355 41.6467C9.60925 41.8699 8.89934 41.7955 8.24213 41.4297C7.48882 41.0112 6.5495 41.2871 6.1341 42.0311C5.71869 42.7782 5.9884 43.7237 6.73551 44.1391C7.61592 44.6289 8.55833 44.8769 9.49455 44.8769C9.60925 44.8769 9.71775 44.8242 9.83245 44.818C11.3081 52.2984 17.2199 55.5845 21.4018 56.5796C20.8562 57.7824 20.4873 59.0224 20.3757 60.2748C20.3013 61.1243 20.9306 61.8807 21.7831 61.9551L21.9226 61.9613C22.7162 61.9613 23.3951 61.3568 23.4664 60.5476C23.8013 56.7873 27.388 52.8595 30.5748 50.798C33.5633 48.8729 37.9374 48.4668 42.1721 48.0731C46.2797 47.698 50.1609 47.3384 53.2021 45.6953ZM93.0872 41.0329C92.6811 41.7831 92.9601 42.7255 93.7072 43.1316C93.9428 43.2618 94.2001 43.3238 94.4513 43.3238C94.9969 43.3238 95.527 43.0355 95.8091 42.5209C95.868 42.4155 101.519 31.8288 90.9389 24.7142C90.2321 24.243 89.268 24.4259 88.7875 25.1358C88.3101 25.8458 88.4992 26.8099 89.2091 27.2873C97.4056 32.7992 93.267 40.6981 93.0872 41.0329ZM28.8326 16.0031C29.3162 16.0031 29.7905 15.7799 30.0912 15.3583C34.5863 9.10552 40.8112 11.2445 41.0747 11.3437C41.8776 11.6352 42.7611 11.2259 43.0587 10.4261C43.3563 9.62322 42.9471 8.73351 42.1442 8.43591C39.1682 7.33229 32.2954 6.98509 27.574 13.551C27.0749 14.2423 27.233 15.2126 27.9274 15.7117C28.2033 15.9101 28.5195 16.0031 28.8326 16.0031ZM69.3564 10.1502C76.254 9.58912 79.3912 14.5895 79.5338 14.8251C79.8252 15.3149 80.3399 15.5877 80.87 15.5877C81.1366 15.5877 81.4094 15.5195 81.6543 15.3738C82.3921 14.9398 82.6401 13.9912 82.2092 13.2534C82.0418 12.9713 78.0551 6.37748 69.1146 7.05949C68.2621 7.12459 67.6266 7.8717 67.6917 8.72731C67.7599 9.57982 68.5318 10.2277 69.3564 10.1502ZM97.7218 55.445C96.9592 55.4016 96.1191 56.0061 96.0509 56.8617C96.0447 56.9175 95.5518 62.1907 90.1298 63.9732C89.3176 64.2398 88.8743 65.114 89.144 65.9293C89.3548 66.5803 89.9655 66.9957 90.6165 66.9957C90.7777 66.9957 90.9389 66.9709 91.1001 66.9182C98.4534 64.5064 99.1168 57.4197 99.1416 57.119C99.2067 56.2634 98.5743 55.5132 97.7218 55.445Z" fill="#717171" fill-opacity="0.05"/>
<path id="Vector_5" d="M20.9929 40.3818C20.7697 41.2095 21.2595 42.0589 22.0872 42.2821C22.2205 42.3193 22.3569 42.3348 22.4902 42.3348C23.1753 42.3348 23.7984 41.8791 23.9844 41.1878C24.5734 38.9837 26.8582 37.57 29.1057 38.0443C29.9458 38.2148 30.7642 37.6847 30.9409 36.8446C31.1176 36.0076 30.5813 35.1861 29.7412 35.0094C28.4206 34.7304 27.0938 34.8606 25.8723 35.276C22.2577 29.0945 22.9614 22.9998 22.9707 22.9347C23.0823 22.0884 22.4871 21.3103 21.6408 21.1925C20.7976 21.0902 20.0164 21.6699 19.8986 22.5162C19.8583 22.8169 19.0305 29.6959 23.1939 36.8198C22.1585 37.7529 21.3711 38.9713 20.9929 40.3818ZM55.6483 32.7247C56.91 31.556 58.9343 31.5777 60.1588 32.7712C60.4626 33.0626 60.8501 33.2083 61.2407 33.2083C61.6468 33.2083 62.0498 33.0502 62.3505 32.7371C62.9458 32.1233 62.9334 31.1405 62.3195 30.5453C61.6065 29.854 60.754 29.3921 59.8488 29.1038C60.7664 25.9542 60.4037 24.5561 59.5512 21.9365C59.4024 21.4808 59.2381 20.9724 59.0645 20.3927L58.9715 20.0827C57.8431 16.3378 57.096 13.8671 59.2412 10.3795C59.6907 9.65104 59.4613 8.69622 58.7328 8.24672C58.0167 7.80031 57.0526 8.02042 56.6 8.75513C53.7231 13.43 54.7802 16.9299 56.0048 20.9817L56.0978 21.2917C56.2807 21.8931 56.4481 22.4201 56.6031 22.8944C57.3688 25.2536 57.6013 26.0441 56.6651 28.8961C55.5212 29.11 54.4268 29.6277 53.534 30.4585C52.9078 31.0413 52.8737 32.0241 53.4565 32.6503C54.0424 33.2765 55.0251 33.3075 55.6483 32.7247ZM75.38 23.471C76.2821 23.471 77.1936 23.2819 78.043 22.8789C78.818 22.5131 79.1497 21.5893 78.7839 20.8143C78.4212 20.0393 77.485 19.7169 76.7223 20.0734C75.1661 20.805 73.2472 20.1695 72.4319 18.6567C72.0258 17.9003 71.0803 17.6244 70.3332 18.0212C69.5798 18.4242 69.2946 19.3666 69.7007 20.1199C70.2588 21.1615 71.0896 21.983 72.0568 22.5534C70.3921 26.599 71.3376 30.8956 72.1095 33.1742C72.3265 33.8221 72.931 34.2282 73.5789 34.2282C73.7432 34.2282 73.9075 34.2034 74.0749 34.1476C74.8871 33.8748 75.3211 32.9944 75.0452 32.1853C74.5244 30.6414 73.5138 26.7416 75.039 23.4245C75.1568 23.4307 75.2653 23.471 75.38 23.471ZM90.2509 52.7014C90.192 51.8488 89.4542 51.1761 88.6048 51.2536C85.4614 51.4768 82.7829 49.0929 82.569 45.9743C82.507 45.1217 81.7475 44.4862 80.9167 44.5327C80.0642 44.5916 79.4194 45.3325 79.4752 46.1851C79.6023 48.0141 80.2998 49.6633 81.36 51.0056C78.8676 53.9383 75.6032 54.7722 73.7835 54.9861C72.1746 55.1783 70.7672 55.014 69.1396 54.8218C67.6485 54.6513 65.9621 54.456 63.8758 54.518L63.8603 54.5211C63.7983 53.6345 63.5875 52.3417 62.9148 51.266C62.4622 50.5437 61.5042 50.3236 60.7788 50.7762C60.0565 51.2288 59.8333 52.1867 60.289 52.9122C60.7044 53.5787 60.7819 54.642 60.7819 55.1597C59.2195 55.7208 57.8679 56.5454 56.6465 57.3421C54.464 58.7619 52.7435 59.8842 50.155 59.3013C47.8113 58.765 45.4646 58.6565 43.4744 58.9355C43.1644 58.1574 42.6746 57.2274 41.9182 56.5113C41.2951 55.9223 40.3154 55.9471 39.7264 56.5733C39.1405 57.1933 39.1653 58.176 39.7884 58.765C40.055 59.0161 40.2658 59.3819 40.4363 59.7478C37.017 61.1552 35.3027 63.5081 35.2221 63.6228C34.7261 64.3172 34.8904 65.2751 35.5786 65.7742C35.8514 65.9695 36.1676 66.0656 36.4838 66.0656C36.9643 66.0656 37.4386 65.8455 37.7424 65.4301C37.7579 65.4053 39.4598 63.1268 42.8172 62.2061C44.5532 61.7287 47.0425 61.769 49.4699 62.3208C50.1488 62.4758 50.7781 62.5285 51.3888 62.5378C51.6771 63.2136 51.7887 64.0165 51.8042 64.3141C51.8538 65.1387 52.5358 65.7773 53.3511 65.7773L53.4348 65.7742C54.2873 65.7277 54.9414 65.0054 54.9011 64.1529C54.8918 63.9979 54.8298 63.0803 54.4981 62.0263C55.9273 61.5086 57.1704 60.6995 58.3391 59.94C60.1123 58.7836 61.7894 57.6893 63.9812 57.618C65.8164 57.5529 67.3292 57.7296 68.7893 57.9001C70.2588 58.0706 71.7034 58.1822 73.2968 58.0892C73.5789 58.8735 73.5572 59.9214 73.5138 60.2717C73.4115 61.118 74.0098 61.893 74.8592 62.0046C74.9243 62.0139 74.9894 62.017 75.0545 62.017C75.8202 62.017 76.4867 61.4497 76.589 60.6685C76.6138 60.4763 76.7719 59.0812 76.4061 57.6273C78.632 57.029 81.391 55.7301 83.6757 53.0672C85.0119 53.8856 86.5712 54.3661 88.2297 54.3661C88.4219 54.3661 88.6172 54.3599 88.8094 54.3475C89.6619 54.2917 90.3067 53.557 90.2509 52.7014Z" fill="#717171" fill-opacity="0.05"/>
</g>
</g>
</svg>
