<svg width="222" height="58" viewBox="0 0 222 58" fill="none" xmlns="http://www.w3.org/2000/svg">
<rect width="170" height="57" rx="9" fill="#D9D9D9"/>
<path d="M131 9C131 4.02944 135.029 0 140 0H213C217.971 0 222 4.02944 222 9V49C222 53.9706 217.971 58 213 58H140C135.029 58 131 53.9706 131 49V9Z" fill="#141414"/>
<path d="M94 0L127.875 58H202V0H94Z" fill="#141414"/>
<path d="M24.5215 30.0762H18.3623L18.3291 27.0381H23.708C24.6156 27.0381 25.3848 26.9053 26.0156 26.6396C26.6576 26.363 27.1445 25.9701 27.4766 25.4609C27.8086 24.9408 27.9746 24.3154 27.9746 23.585C27.9746 22.777 27.8197 22.1185 27.5098 21.6094C27.1999 21.1003 26.724 20.7295 26.082 20.4971C25.4512 20.2646 24.6432 20.1484 23.6582 20.1484H19.624V41H15.457V16.8281H23.6582C24.9863 16.8281 26.1706 16.9554 27.2109 17.21C28.2624 17.4645 29.1533 17.863 29.8838 18.4053C30.6253 18.9365 31.1842 19.6117 31.5605 20.4307C31.9479 21.2497 32.1416 22.2236 32.1416 23.3525C32.1416 24.3486 31.9036 25.2617 31.4277 26.0918C30.9518 26.9108 30.249 27.5804 29.3193 28.1006C28.3896 28.6208 27.2331 28.9307 25.8496 29.0303L24.5215 30.0762ZM24.3389 41H17.0508L18.9268 37.6963H24.3389C25.2796 37.6963 26.0654 37.5413 26.6963 37.2314C27.3271 36.9105 27.7975 36.4733 28.1074 35.9199C28.4284 35.3555 28.5889 34.6969 28.5889 33.9443C28.5889 33.1585 28.4505 32.4779 28.1738 31.9023C27.8971 31.3158 27.46 30.8675 26.8623 30.5576C26.2646 30.2367 25.4844 30.0762 24.5215 30.0762H19.8398L19.873 27.0381H25.9658L26.9121 28.1836C28.2402 28.2279 29.3304 28.5212 30.1826 29.0635C31.0459 29.6058 31.6878 30.3086 32.1084 31.1719C32.529 32.0352 32.7393 32.9648 32.7393 33.9609C32.7393 35.4993 32.4017 36.7887 31.7266 37.8291C31.0625 38.8695 30.1051 39.6608 28.8545 40.2031C27.6038 40.7344 26.0986 41 24.3389 41ZM46.668 37.3975V28.8311C46.668 28.1891 46.5518 27.6357 46.3193 27.1709C46.0869 26.7061 45.7327 26.3464 45.2568 26.0918C44.792 25.8372 44.2054 25.71 43.4971 25.71C42.8441 25.71 42.2796 25.8206 41.8037 26.042C41.3278 26.2633 40.957 26.5622 40.6914 26.9385C40.4258 27.3148 40.293 27.7409 40.293 28.2168H36.3086C36.3086 27.5085 36.4801 26.8223 36.8232 26.1582C37.1663 25.4941 37.6644 24.902 38.3174 24.3818C38.9704 23.8617 39.7507 23.4521 40.6582 23.1533C41.5658 22.8545 42.584 22.7051 43.7129 22.7051C45.0632 22.7051 46.2585 22.932 47.2988 23.3857C48.3503 23.8395 49.1748 24.5257 49.7725 25.4443C50.3812 26.3519 50.6855 27.4919 50.6855 28.8643V36.8496C50.6855 37.6686 50.7409 38.4046 50.8516 39.0576C50.9733 39.6995 51.1449 40.2585 51.3662 40.7344V41H47.2656C47.0775 40.5684 46.9281 40.0205 46.8174 39.3564C46.7178 38.6813 46.668 38.0283 46.668 37.3975ZM47.249 30.0762L47.2822 32.5498H44.4102C43.6686 32.5498 43.0156 32.6217 42.4512 32.7656C41.8867 32.8984 41.4163 33.0977 41.04 33.3633C40.6637 33.6289 40.3815 33.9499 40.1934 34.3262C40.0052 34.7025 39.9111 35.1286 39.9111 35.6045C39.9111 36.0804 40.0218 36.5176 40.2432 36.916C40.4645 37.3034 40.7855 37.6077 41.2061 37.8291C41.6377 38.0505 42.1579 38.1611 42.7666 38.1611C43.5856 38.1611 44.2995 37.9951 44.9082 37.6631C45.528 37.32 46.015 36.9049 46.3691 36.418C46.7233 35.9199 46.9115 35.4495 46.9336 35.0068L48.2285 36.7832C48.0957 37.237 47.8688 37.724 47.5479 38.2441C47.2269 38.7643 46.8063 39.2624 46.2861 39.7383C45.777 40.2031 45.1628 40.585 44.4434 40.8838C43.735 41.1826 42.916 41.332 41.9863 41.332C40.8132 41.332 39.7673 41.0996 38.8486 40.6348C37.93 40.1589 37.2106 39.5225 36.6904 38.7256C36.1702 37.9176 35.9102 37.0046 35.9102 35.9863C35.9102 35.0345 36.0872 34.1934 36.4414 33.4629C36.8066 32.7214 37.3379 32.1016 38.0352 31.6035C38.7435 31.1055 39.6068 30.7292 40.625 30.4746C41.6432 30.209 42.8053 30.0762 44.1113 30.0762H47.249ZM58.8867 26.457V41H54.8857V23.0371H58.7041L58.8867 26.457ZM64.3818 22.9209L64.3486 26.6396C64.1051 26.5954 63.8395 26.5622 63.5518 26.54C63.2751 26.5179 62.9984 26.5068 62.7217 26.5068C62.0355 26.5068 61.4323 26.6064 60.9121 26.8057C60.3919 26.9938 59.9548 27.2705 59.6006 27.6357C59.2575 27.9899 58.9919 28.4215 58.8037 28.9307C58.6156 29.4398 58.5049 30.0098 58.4717 30.6406L57.5586 30.707C57.5586 29.5781 57.6693 28.5322 57.8906 27.5693C58.112 26.6064 58.444 25.7598 58.8867 25.0293C59.3405 24.2988 59.9049 23.7288 60.5801 23.3193C61.2663 22.9098 62.0576 22.7051 62.9541 22.7051C63.1976 22.7051 63.4577 22.7272 63.7344 22.7715C64.0221 22.8158 64.238 22.8656 64.3818 22.9209ZM76.418 37.3975V28.8311C76.418 28.1891 76.3018 27.6357 76.0693 27.1709C75.8369 26.7061 75.4827 26.3464 75.0068 26.0918C74.542 25.8372 73.9554 25.71 73.2471 25.71C72.5941 25.71 72.0296 25.8206 71.5537 26.042C71.0778 26.2633 70.707 26.5622 70.4414 26.9385C70.1758 27.3148 70.043 27.7409 70.043 28.2168H66.0586C66.0586 27.5085 66.2301 26.8223 66.5732 26.1582C66.9163 25.4941 67.4144 24.902 68.0674 24.3818C68.7204 23.8617 69.5007 23.4521 70.4082 23.1533C71.3158 22.8545 72.334 22.7051 73.4629 22.7051C74.8132 22.7051 76.0085 22.932 77.0488 23.3857C78.1003 23.8395 78.9248 24.5257 79.5225 25.4443C80.1312 26.3519 80.4355 27.4919 80.4355 28.8643V36.8496C80.4355 37.6686 80.4909 38.4046 80.6016 39.0576C80.7233 39.6995 80.8949 40.2585 81.1162 40.7344V41H77.0156C76.8275 40.5684 76.6781 40.0205 76.5674 39.3564C76.4678 38.6813 76.418 38.0283 76.418 37.3975ZM76.999 30.0762L77.0322 32.5498H74.1602C73.4186 32.5498 72.7656 32.6217 72.2012 32.7656C71.6367 32.8984 71.1663 33.0977 70.79 33.3633C70.4137 33.6289 70.1315 33.9499 69.9434 34.3262C69.7552 34.7025 69.6611 35.1286 69.6611 35.6045C69.6611 36.0804 69.7718 36.5176 69.9932 36.916C70.2145 37.3034 70.5355 37.6077 70.9561 37.8291C71.3877 38.0505 71.9079 38.1611 72.5166 38.1611C73.3356 38.1611 74.0495 37.9951 74.6582 37.6631C75.278 37.32 75.765 36.9049 76.1191 36.418C76.4733 35.9199 76.6615 35.4495 76.6836 35.0068L77.9785 36.7832C77.8457 37.237 77.6188 37.724 77.2979 38.2441C76.9769 38.7643 76.5563 39.2624 76.0361 39.7383C75.527 40.2031 74.9128 40.585 74.1934 40.8838C73.485 41.1826 72.666 41.332 71.7363 41.332C70.5632 41.332 69.5173 41.0996 68.5986 40.6348C67.68 40.1589 66.9606 39.5225 66.4404 38.7256C65.9202 37.9176 65.6602 37.0046 65.6602 35.9863C65.6602 35.0345 65.8372 34.1934 66.1914 33.4629C66.5566 32.7214 67.0879 32.1016 67.7852 31.6035C68.4935 31.1055 69.3568 30.7292 70.375 30.4746C71.3932 30.209 72.5553 30.0762 73.8613 30.0762H76.999ZM88.5869 26.8721V41H84.5859V23.0371H88.3545L88.5869 26.8721ZM87.873 31.3545L86.5781 31.3379C86.5892 30.0651 86.7663 28.8975 87.1094 27.835C87.4635 26.7725 87.9505 25.8594 88.5703 25.0957C89.2012 24.332 89.9538 23.7454 90.8281 23.3359C91.7025 22.9154 92.6764 22.7051 93.75 22.7051C94.6133 22.7051 95.3936 22.8268 96.0908 23.0703C96.7992 23.3027 97.4023 23.6846 97.9004 24.2158C98.4095 24.7471 98.7969 25.4388 99.0625 26.291C99.3281 27.1322 99.4609 28.167 99.4609 29.3955V41H95.4434V29.3789C95.4434 28.5156 95.3161 27.835 95.0615 27.3369C94.818 26.8278 94.4583 26.4681 93.9824 26.2578C93.5176 26.0365 92.9365 25.9258 92.2393 25.9258C91.5531 25.9258 90.9388 26.0697 90.3965 26.3574C89.8542 26.6452 89.3949 27.0381 89.0186 27.5361C88.6533 28.0342 88.3711 28.6097 88.1719 29.2627C87.9727 29.9157 87.873 30.613 87.873 31.3545Z" fill="#313131"/>
<path d="M152.018 28.6484V37.8789C151.674 38.3327 151.138 38.8307 150.407 39.373C149.688 39.9043 148.73 40.3636 147.535 40.751C146.34 41.1383 144.851 41.332 143.069 41.332C141.553 41.332 140.164 41.0775 138.902 40.5684C137.641 40.0482 136.55 39.29 135.632 38.2939C134.724 37.2979 134.021 36.0859 133.523 34.6582C133.025 33.2194 132.776 31.5814 132.776 29.7441V28.0674C132.776 26.2412 133.003 24.6143 133.457 23.1865C133.922 21.7477 134.586 20.5303 135.449 19.5342C136.312 18.5381 137.353 17.7855 138.57 17.2764C139.799 16.7562 141.188 16.4961 142.737 16.4961C144.718 16.4961 146.356 16.8281 147.651 17.4922C148.957 18.1452 149.965 19.0527 150.673 20.2148C151.381 21.377 151.829 22.7051 152.018 24.1992H147.934C147.801 23.3581 147.541 22.6055 147.153 21.9414C146.777 21.2773 146.235 20.7572 145.526 20.3809C144.829 19.9935 143.922 19.7998 142.804 19.7998C141.841 19.7998 140.994 19.9824 140.264 20.3477C139.533 20.7129 138.924 21.2497 138.438 21.958C137.962 22.6663 137.602 23.5296 137.358 24.5479C137.115 25.5661 136.993 26.7282 136.993 28.0342V29.7441C136.993 31.0723 137.132 32.251 137.408 33.2803C137.696 34.3096 138.105 35.1784 138.637 35.8867C139.179 36.5951 139.838 37.1318 140.612 37.4971C141.387 37.8512 142.261 38.0283 143.235 38.0283C144.187 38.0283 144.967 37.9508 145.576 37.7959C146.185 37.6299 146.666 37.4362 147.021 37.2148C147.386 36.9824 147.668 36.7611 147.867 36.5508V31.7529H142.837V28.6484H152.018ZM165.813 31.9854H159.521V28.6816H165.813C166.909 28.6816 167.795 28.5046 168.47 28.1504C169.145 27.7962 169.637 27.3092 169.947 26.6895C170.268 26.0586 170.429 25.3392 170.429 24.5312C170.429 23.7676 170.268 23.0537 169.947 22.3896C169.637 21.7145 169.145 21.1722 168.47 20.7627C167.795 20.3532 166.909 20.1484 165.813 20.1484H160.8V41H156.633V16.8281H165.813C167.684 16.8281 169.272 17.1602 170.578 17.8242C171.895 18.4772 172.897 19.3848 173.583 20.5469C174.269 21.6979 174.612 23.015 174.612 24.498C174.612 26.0586 174.269 27.3978 173.583 28.5156C172.897 29.6335 171.895 30.4912 170.578 31.0889C169.272 31.6865 167.684 31.9854 165.813 31.9854ZM188.292 16.8281V41H184.158V16.8281H188.292ZM195.879 16.8281V20.1484H176.638V16.8281H195.879Z" fill="white"/>
</svg>
