<svg width="108" height="87" viewBox="0 0 108 87" fill="none" xmlns="http://www.w3.org/2000/svg">
<path d="M90.8956 70.5545C90.9049 71.4318 90.6786 72.5788 90.443 73.5244C88.7969 80.174 81.487 87.6358 71.1979 86.9568C61.873 86.343 54.2779 81.8666 54.2779 75.589C54.2779 69.3114 61.8544 64.2211 71.1979 64.2211C80.5415 64.2211 90.8367 64.2769 90.8956 70.5545Z" fill="#717171"/>
<path d="M71.1981 65.2753C66.1792 65.2753 54.7245 66.6641 52.0957 66.6641C47.4518 66.6641 43.6852 69.5781 43.6852 73.1742C43.6852 74.904 44.5719 76.4664 45.9917 77.632C45.9917 77.632 49.1103 80.76 54.7276 79.2596C57.1859 78.6024 61.185 73.7229 68.2252 72.9479C71.7313 72.5604 78.3003 75.2729 89.8449 75.338C90.3409 74.2716 90.4432 73.5307 90.4432 73.5307C90.4432 67.2469 80.5417 65.2753 71.1981 65.2753Z" fill="#AAAAAA"/>
<path d="M90.4432 73.5244C90.4432 73.5244 97.2137 72.1511 101.424 66.6144C106.331 60.157 105.686 53.247 105.686 53.247C110.659 43.9469 104.136 35.2264 104.136 35.2264C103.488 25.4086 97.4183 21.3413 97.4183 21.3413C93.4781 11.9761 84.7608 9.45887 84.7608 9.45887C77.9159 1.45146 65.773 1.70877 65.773 1.70877C65.773 1.70877 54.3959 -2.46079 38.7779 2.22647C36.1955 3.00148 27.5402 4.80881 21.2099 8.68386C1.25803 20.898 -0.251693 39.9447 0.0273105 43.0416C1.57423 60.3492 13.7171 63.4492 21.4672 65.2566C23.2745 70.1639 29.9272 79.2068 41.8748 75.8494C56.6 73.2671 62.8001 68.8743 66.4178 68.8743C70.0356 68.8743 80.1107 72.7494 90.4432 73.5244Z" fill="white"/>
<path d="M53.2021 45.6953C60.419 41.8048 64.3312 42.1675 67.7847 42.4806C68.8821 42.5798 69.9206 42.6573 70.9715 42.6511C77.122 42.5116 82.1038 39.92 84.3079 37.412C84.8721 36.7672 84.807 35.7907 84.1653 35.2234C83.5267 34.6592 82.5502 34.7181 81.9767 35.3629C80.2778 37.2973 76.0897 39.4333 70.9002 39.5511C69.9702 39.579 69.0371 39.4859 68.0699 39.396C64.3653 39.0519 59.7649 38.6303 51.7295 42.9673C49.668 44.0802 46.8408 44.4925 43.7779 44.8025C36.9671 34.9723 41.0654 26.41 42.2372 24.3701C42.3519 24.3763 42.4635 24.4135 42.5813 24.4135C43.8213 24.4135 45.0676 24.1097 46.196 23.4711C46.94 23.0495 47.2035 22.104 46.7819 21.36C46.3603 20.616 45.4148 20.3525 44.6707 20.7741C42.6867 21.8963 40.0765 21.2484 38.8427 19.3264C38.3808 18.6041 37.4228 18.3932 36.7036 18.8583C35.9844 19.3202 35.7736 20.2781 36.2355 20.9973C36.9702 22.1474 38.0056 23.0123 39.1744 23.592C37.5592 26.8719 34.4933 35.4962 40.3276 45.1404C36.2231 45.5434 32.1125 46.1231 28.8946 48.1971C26.8176 49.5363 24.6941 51.4955 23.0727 53.7493C21.1228 53.4144 13.9834 51.6567 12.7372 43.733C13.5122 43.1316 14.1384 42.338 14.5259 41.3584C14.8421 40.5617 14.4515 39.6627 13.6548 39.3464C12.8581 39.0302 11.9591 39.4208 11.6429 40.2176C11.367 40.9151 10.8679 41.4235 10.2355 41.6467C9.60925 41.8699 8.89934 41.7955 8.24213 41.4297C7.48882 41.0112 6.5495 41.2871 6.1341 42.0311C5.71869 42.7782 5.9884 43.7237 6.73551 44.1391C7.61592 44.6289 8.55833 44.8769 9.49455 44.8769C9.60925 44.8769 9.71775 44.8242 9.83245 44.818C11.3081 52.2984 17.2199 55.5845 21.4018 56.5796C20.8562 57.7824 20.4873 59.0224 20.3757 60.2748C20.3013 61.1243 20.9306 61.8807 21.7831 61.9551L21.9226 61.9613C22.7162 61.9613 23.3951 61.3568 23.4664 60.5476C23.8013 56.7873 27.388 52.8595 30.5748 50.798C33.5633 48.8729 37.9375 48.4668 42.1721 48.0731C46.2797 47.698 50.1609 47.3384 53.2021 45.6953ZM93.0872 41.0329C92.6811 41.7831 92.9601 42.7255 93.7072 43.1316C93.9428 43.2618 94.2001 43.3238 94.4512 43.3238C94.9969 43.3238 95.527 43.0355 95.8091 42.5209C95.868 42.4155 101.519 31.8288 90.9389 24.7142C90.2321 24.243 89.268 24.4259 88.7875 25.1358C88.3101 25.8458 88.4992 26.8099 89.2091 27.2873C97.4056 32.7992 93.267 40.6981 93.0872 41.0329ZM28.8326 16.0031C29.3162 16.0031 29.7905 15.7799 30.0912 15.3583C34.5863 9.10552 40.8112 11.2445 41.0747 11.3437C41.8776 11.6352 42.7611 11.2259 43.0587 10.4261C43.3563 9.62322 42.9471 8.73351 42.1442 8.43591C39.1682 7.33229 32.2954 6.98509 27.574 13.551C27.0749 14.2423 27.233 15.2126 27.9274 15.7117C28.2033 15.9101 28.5195 16.0031 28.8326 16.0031ZM69.3564 10.1502C76.254 9.58912 79.3912 14.5895 79.5338 14.8251C79.8252 15.3149 80.3399 15.5877 80.87 15.5877C81.1366 15.5877 81.4094 15.5195 81.6543 15.3738C82.3921 14.9398 82.6401 13.9912 82.2092 13.2534C82.0418 12.9713 78.0551 6.37748 69.1146 7.05949C68.2621 7.12459 67.6266 7.8717 67.6917 8.72731C67.7599 9.57982 68.5318 10.2277 69.3564 10.1502ZM97.7218 55.445C96.9592 55.4016 96.1191 56.0061 96.0509 56.8617C96.0447 56.9175 95.5518 62.1907 90.1298 63.9732C89.3176 64.2398 88.8743 65.114 89.144 65.9293C89.3548 66.5803 89.9655 66.9957 90.6165 66.9957C90.7777 66.9957 90.9389 66.9709 91.1001 66.9182C98.4534 64.5064 99.1168 57.4197 99.1416 57.119C99.2067 56.2634 98.5743 55.5132 97.7218 55.445Z" fill="#717171"/>
<path d="M20.9931 40.3818C20.7699 41.2095 21.2597 42.0589 22.0874 42.2821C22.2207 42.3193 22.3571 42.3348 22.4904 42.3348C23.1755 42.3348 23.7987 41.8791 23.9847 41.1878C24.5737 38.9837 26.8584 37.5701 29.1059 38.0444C29.946 38.2149 30.7645 37.6848 30.9412 36.8446C31.1179 36.0076 30.5816 35.1861 29.7414 35.0094C28.4208 34.7304 27.094 34.8606 25.8726 35.276C22.2579 29.0945 22.9616 22.9998 22.9709 22.9347C23.0825 22.0884 22.4873 21.3103 21.641 21.1925C20.7978 21.0902 20.0166 21.6699 19.8988 22.5162C19.8585 22.8169 19.0308 29.6959 23.1941 36.8198C22.1587 37.753 21.3713 38.9713 20.9931 40.3818ZM55.6485 32.7247C56.9102 31.556 58.9345 31.5777 60.1591 32.7712C60.4629 33.0626 60.8504 33.2083 61.241 33.2083C61.6471 33.2083 62.0501 33.0502 62.3508 32.7371C62.946 32.1233 62.9336 31.1406 62.3198 30.5454C61.6068 29.854 60.7543 29.3921 59.8491 29.1038C60.7667 25.9542 60.404 24.5561 59.5515 21.9365C59.4027 21.4808 59.2383 20.9724 59.0647 20.3927L58.9717 20.0827C57.8433 16.3378 57.0962 13.8671 59.2414 10.3796C59.691 9.65105 59.4616 8.69624 58.733 8.24673C58.0169 7.80033 57.0528 8.02043 56.6002 8.75514C53.7234 13.43 54.7805 16.93 56.005 20.9817L56.098 21.2917C56.2809 21.8931 56.4483 22.4201 56.6033 22.8944C57.369 25.2536 57.6015 26.0441 56.6653 28.8961C55.5214 29.11 54.4271 29.6277 53.5343 30.4586C52.9081 31.0414 52.874 32.0241 53.4568 32.6503C54.0427 33.2765 55.0254 33.3075 55.6485 32.7247ZM75.3803 23.4711C76.2824 23.4711 77.1938 23.2819 78.0432 22.8789C78.8182 22.5131 79.1499 21.5893 78.7841 20.8143C78.4214 20.0393 77.4852 19.7169 76.7226 20.0734C75.1664 20.805 73.2474 20.1695 72.4321 18.6567C72.026 17.9003 71.0805 17.6244 70.3334 18.0212C69.5801 18.4242 69.2949 19.3666 69.701 20.1199C70.259 21.1615 71.0898 21.983 72.057 22.5534C70.3923 26.599 71.3378 30.8957 72.1097 33.1742C72.3267 33.8221 72.9312 34.2282 73.5791 34.2282C73.7434 34.2282 73.9077 34.2034 74.0751 34.1476C74.8874 33.8748 75.3214 32.9944 75.0455 32.1853C74.5247 30.6415 73.514 26.7416 75.0393 23.4246C75.1571 23.4307 75.2656 23.4711 75.3803 23.4711ZM90.2512 52.7014C90.1923 51.8489 89.4545 51.1761 88.6051 51.2536C85.4616 51.4769 82.7832 49.0929 82.5693 45.9743C82.5073 45.1218 81.7478 44.4863 80.917 44.5328C80.0644 44.5917 79.4196 45.3326 79.4754 46.1851C79.6025 48.0141 80.3 49.6633 81.3603 51.0056C78.8678 53.9383 75.6035 54.7722 73.7837 54.9861C72.1748 55.1783 70.7674 55.014 69.1399 54.8218C67.6488 54.6513 65.9623 54.456 63.876 54.518L63.8605 54.5211C63.7985 53.6345 63.5877 52.3418 62.915 51.266C62.4624 50.5437 61.5045 50.3236 60.7791 50.7762C60.0568 51.2289 59.8336 52.1868 60.2893 52.9122C60.7047 53.5787 60.7822 54.642 60.7822 55.1597C59.2197 55.7208 57.8681 56.5454 56.6467 57.3421C54.4643 58.762 52.7438 59.8842 50.1552 59.3014C47.8116 58.7651 45.4649 58.6566 43.4746 58.9356C43.1646 58.1574 42.6748 57.2274 41.9184 56.5113C41.2953 55.9223 40.3157 55.9471 39.7267 56.5733C39.1408 57.1933 39.1656 58.176 39.7887 58.7651C40.0553 59.0162 40.2661 59.382 40.4366 59.7478C37.0172 61.1552 35.3029 63.5081 35.2223 63.6228C34.7263 64.3172 34.8906 65.2751 35.5788 65.7743C35.8516 65.9696 36.1678 66.0657 36.484 66.0657C36.9645 66.0657 37.4388 65.8456 37.7427 65.4301C37.7582 65.4053 39.4601 63.1268 42.8174 62.2061C44.5534 61.7287 47.0428 61.769 49.4701 62.3208C50.149 62.4758 50.7783 62.5285 51.389 62.5378C51.6773 63.2136 51.7889 64.0165 51.8044 64.3141C51.854 65.1387 52.5361 65.7774 53.3514 65.7774L53.4351 65.7743C54.2876 65.7278 54.9417 65.0054 54.9014 64.1529C54.8921 63.9979 54.8301 63.0803 54.4984 62.0263C55.9275 61.5086 57.1706 60.6995 58.3393 59.94C60.1126 58.7837 61.7897 57.6893 63.9814 57.618C65.8166 57.5529 67.3295 57.7296 68.7896 57.9001C70.259 58.0706 71.7036 58.1822 73.297 58.0892C73.5791 58.8736 73.5574 59.9214 73.514 60.2717C73.4117 61.118 74.0101 61.893 74.8595 62.0046C74.9246 62.0139 74.9897 62.017 75.0548 62.017C75.8205 62.017 76.487 61.4497 76.5893 60.6685C76.6141 60.4763 76.7722 59.0813 76.4064 57.6273C78.6322 57.029 81.3913 55.7301 83.676 53.0672C85.0121 53.8856 86.5714 54.3661 88.2299 54.3661C88.4221 54.3661 88.6175 54.3599 88.8097 54.3475C89.6622 54.2917 90.307 53.557 90.2512 52.7014Z" fill="#717171"/>
</svg>
